<svg xmlns="http://www.w3.org/2000/svg" width="24" height="24" viewBox="0 0 24 24"><path d="M35.6 76.22c-.6.6-.83 3.391-.743 4.366.055.614.189 1.248.841 1.442 1.052.31.696-2.905.686-3.373-.015-.721-.176-1.791-.785-2.435M41.012 83.651c.762.482 1.518 1.218 2.11 1.87.352.362.684.56-.016.45-1.058-.186-2.307-.335-3.262-.78-.313-.152-2.935-1.51-1.008-1.385.292.019 2.07.044 2.175-.155" style="fill:#eeeeb1;fill-opacity:1;fill-rule:evenodd;stroke:none;stroke-width:.00606261" transform="translate(-24 -72)"/><path d="M40.302 78.65c.982-1.273 3.066-1.52 3.734-1.377.144.669.46 2.17-.813 3.151.86.2 1.182.717 1.733 1.227-2.216 2.279-5.118 2.565-6.94 1.643-.923-1.822-.983-4.43 1.295-6.645.51.55.792 1.14.991 2" style="fill:#eeeeb1;fill-opacity:1;fill-rule:evenodd;stroke:none;stroke-width:.00606261" transform="translate(-24 -72)"/><path d="M41.068 85.43a6.311 6.311 0 0 1-.723-.22 5.823 5.823 0 0 1-.633-.28l-.036-.02c-.21-.11-.544-.347-.874-.638a7.23 7.23 0 0 0 3.797-.305c.504.42 1.08.959 1.509 1.43-.981.287-2.055.27-3.038.033zm-5.739 1.815c-.806 1.183-1.699 2.495-2.64 3.514-.852.92-1.755 1.596-2.678 1.658a.838.838 0 0 1-.445-.383c-.097-.188-.12-.427-.047-.693v-.012l.022-.07v-.001c.573-1.697 2.512-3.135 4.656-4.724.744-.552 1.512-1.121 2.268-1.733.155-.126.307-.256.458-.386.051.068.104.136.161.204.031.038.067.075.1.113-.573.63-1.187 1.528-1.86 2.516zm-6.176.194c1.01-.932 2.316-1.807 3.493-2.596 1.075-.72 2.048-1.373 2.675-1.985l.081.072c.146.121.293.23.436.321.039.024.077.044.116.066-.135.116-.27.231-.408.344a63.892 63.892 0 0 1-2.216 1.693c-2.343 1.737-4.462 3.307-5.179 5.455v.012l-.022.07c0 .014-.01.028-.012.042-.046.16-.075.318-.09.473-.985-1.386-.198-2.737 1.135-3.969zm5.469-11.527c.47.428 1.008 1.004 1.427 1.507a7.23 7.23 0 0 0-.355 3.498c.015.103.039.204.058.307-.293-.331-.532-.667-.643-.88l-.021-.036a5.8 5.8 0 0 1-.278-.632 6.359 6.359 0 0 1-.221-.723c-.237-.982-.254-2.057.033-3.038zm4.01-.044c.056.09.106.184.153.279.168.342.298.739.41 1.218a.734.734 0 0 0 1.301.279c.14-.179.294-.333.458-.464.167-.134.363-.259.577-.372a5.568 5.568 0 0 1 2.29-.618c0 .089-.01.184-.02.285-.098.975-.497 2.331-1.434 3.053a.734.734 0 0 0 .285 1.295v.001c.48.111.876.242 1.218.41.096.047.188.097.278.15-.165.14-.33.27-.498.388-.36.255-.722.463-1.083.628a5.813 5.813 0 0 1-3.916.336 27.77 27.77 0 0 0 1.704-2.04.733.733 0 0 0-1.167-.885 26.135 26.135 0 0 1-1.717 2.047l-.03.03c-.025-.07-.05-.139-.073-.21a6.04 6.04 0 0 1-.22-.969c-.22-1.516.136-3.24 1.484-4.84zm7.29 9.513v-.01a2.865 2.865 0 0 0-.226-.357 5.63 5.63 0 0 0-.329-.408c-.363-.421-.85-.904-1.327-1.333.156-.096.312-.197.466-.306a9.528 9.528 0 0 0 1.27-1.087l.035-.036.013-.013a.733.733 0 0 0-.04-1.035 5.222 5.222 0 0 0-1.63-1.039c.692-.982 1.017-2.2 1.11-3.135.025-.243.034-.473.03-.679 0-.209-.021-.394-.05-.542l-.01-.028v-.01a.735.735 0 0 0-.566-.567c-.697-.15-2.423-.022-3.825.724a5.078 5.078 0 0 0-.578.357 5.188 5.188 0 0 0-1.005-1.593l-.044-.05a.735.735 0 0 0-1.038-.014 9.217 9.217 0 0 0-1.433 1.773c-.43-.476-.912-.964-1.333-1.327l-.038-.035a5.912 5.912 0 0 0-.368-.293 2.85 2.85 0 0 0-.367-.23v-.001a.735.735 0 0 0-.99.315c-.778 1.51-.864 3.301-.483 4.884h.001c.074.307.166.606.272.892.103.277.222.544.353.799l.021.043c.102.194.285.465.51.756-.498.503-1.44 1.136-2.49 1.838-1.226.822-2.588 1.735-3.671 2.735-2.04 1.883-3.124 4.025-.947 6.384.02.02.037.04.058.056 2.377 2.184 4.567 1.047 6.5-1.046 1.013-1.096 1.938-2.455 2.773-3.68.646-.948 1.233-1.808 1.724-2.349.278.214.537.387.724.485.015.01.029.014.044.021a7.342 7.342 0 0 0 1.69.625c1.582.382 3.374.296 4.883-.483a.734.734 0 0 0 .316-.989" style="fill:#aec90b;fill-opacity:1;fill-rule:evenodd;stroke:none;stroke-width:.00606261" transform="translate(-24 -72)"/></svg>