<svg xmlns="http://www.w3.org/2000/svg" width="24" height="24" viewBox="0 0 24 24"><path d="m44.916 2638.776 6.439 3.895v-6.522l-6.439-3.52v6.147" style="fill:#dfe7eb;fill-opacity:1;fill-rule:evenodd;stroke:none;stroke-width:.0046668" transform="matrix(1.33333 0 0 -1.33333 -48 3531.04)"/><path d="M50.62 2636.323a1.788 1.788 0 0 0-.069-.154c-.13-.255-.317-.479-.52-.595l-4.36-2.518-.022-.013a.993.993 0 0 0-.128-.057 1.343 1.343 0 0 0-.19-.052c-.356-.072-.759-.032-1.024.121l-4.361 2.518v.001a.93.93 0 0 0-.134.096 1.25 1.25 0 0 0-.14.14c-.24.271-.407.64-.407.946v5.035c0 .13.035.28.095.432.024.06.047.112.07.155.13.256.318.479.517.595l4.362 2.517.024.015a.998.998 0 0 0 .125.055c.06.021.124.04.19.052.356.071.76.032 1.025-.121l4.36-2.518v-.001a.9.9 0 0 0 .135-.096c.045-.038.092-.085.14-.139.24-.272.406-.64.406-.947v-5.035c0-.129-.035-.279-.095-.432zm.536 7.164a2.524 2.524 0 0 1-.259.253c-.094.08-.194.151-.298.212l-4.36 2.518c-.499.288-1.21.372-1.813.25a2.479 2.479 0 0 1-.349-.097 2.08 2.08 0 0 1-.299-.134c-.012-.01-.024-.013-.036-.02l-4.361-2.518c-.39-.227-.735-.622-.958-1.059a3.181 3.181 0 0 1-.118-.256 2.331 2.331 0 0 1-.17-.844v-5.035c0-.575.283-1.233.69-1.695.078-.09.166-.175.26-.253.09-.078.186-.147.286-.205l.012-.01 4.362-2.519c.498-.287 1.208-.371 1.812-.25a2.366 2.366 0 0 1 .645.23c.013.01.026.014.04.02l4.36 2.519c.39.225.734.62.958 1.06.047.091.086.177.118.256.107.274.17.564.17.843v5.035c0 .576-.283 1.233-.69 1.695" style="fill:#9ca0a4;fill-opacity:1;fill-rule:evenodd;stroke:none;stroke-width:.0046668" transform="matrix(1.33333 0 0 -1.33333 -48 3531.04)"/><path d="m48.126 2641.633-2.396-1.384c-.012-.01-.024-.012-.035-.02-.201-.115-.488-.165-.776-.15-.05 0-.107.01-.17.017-.15.023-.288.063-.397.121l-.02.013-2.313 1.335a.563.563 0 0 1-.628-.043.56.56 0 0 1 0-.975l2.303-1.33.001-.001h.01a.955.955 0 0 0 .135-.097c.045-.038.092-.085.139-.139.24-.272.407-.64.407-.947v-2.806a.566.566 0 0 1 1.133 0v2.806c0 .306.166.675.406.947.047.053.094.1.14.14.044.036.09.07.134.095v.001h.01v.001l2.303 1.33c.01 0 .012.01.018.013l.163.094a.564.564 0 1 1-.562.978" style="fill:#9ca0a4;fill-opacity:1;fill-rule:evenodd;stroke:none;stroke-width:.0046668" transform="matrix(1.33333 0 0 -1.33333 -48 3531.04)"/></svg>