<svg xmlns="http://www.w3.org/2000/svg" width="24" height="24" viewBox="0 0 24 24"><path d="M60.895 78.36a5.146 5.146 0 1 1 0 10.293 5.146 5.146 0 0 1 0-10.292" style="fill:#dee8f5;fill-opacity:1;fill-rule:evenodd;stroke:none;stroke-width:.00499813" transform="translate(-48 -72)"/><path d="M68.808 87.702c0 .73-.296 1.39-.774 1.87-.48.478-1.14.775-1.87.775a2.635 2.635 0 0 1-2.616-2.292c.311-.216.603-.458.87-.725h-.001c.065-.065.129-.133.191-.201l.425.53a.605.605 0 1 0 .947-.753l-.621-.779c.2-.331.37-.682.51-1.05.096-.012.194-.02.295-.02.73 0 1.39.296 1.869.774.48.48.776 1.14.776 1.87zm-8.872.27a5.096 5.096 0 0 1-2.218-.505 3.837 3.837 0 0 0-.911-2.268l1.138-1.139a.606.606 0 1 0-.857-.857L55.88 84.41a3.843 3.843 0 0 0-.937-.413 5.106 5.106 0 0 1 1.37-4.769 5.106 5.106 0 0 1 3.62-1.502c1.414 0 2.695.574 3.621 1.5a5.106 5.106 0 0 1 1.503 3.62c0 .81-.19 1.577-.526 2.259a.605.605 0 0 0-.887.817l.192.24c-.09.104-.182.206-.28.304h-.002a5.107 5.107 0 0 1-3.62 1.502zm-3.415-.27c0 .73-.295 1.39-.774 1.87-.48.478-1.14.775-1.87.775-.73 0-1.39-.296-1.868-.774a2.635 2.635 0 0 1-.002-3.738 2.638 2.638 0 0 1 3.739-.002c.479.48.775 1.14.775 1.87zm13.496 0a3.842 3.842 0 0 0-1.127-2.722 3.846 3.846 0 0 0-2.7-1.129 6.313 6.313 0 0 0-1.774-5.473 6.316 6.316 0 0 0-4.478-1.855c-1.75 0-3.332.709-4.476 1.853a6.314 6.314 0 0 0-1.854 4.477c0 .342.03.677.082 1.004a3.845 3.845 0 0 0-3.665 3.844 3.84 3.84 0 0 0 1.127 2.722 3.845 3.845 0 0 0 2.726 1.13 3.842 3.842 0 0 0 3.71-2.826 6.327 6.327 0 0 0 4.846-.058 3.841 3.841 0 0 0 3.726 2.884 3.842 3.842 0 0 0 2.723-1.127 3.847 3.847 0 0 0 1.13-2.726" style="fill:#91b6e1;fill-opacity:1;fill-rule:evenodd;stroke:none;stroke-width:.00499813" transform="translate(-48 -72)"/></svg>