<svg xmlns="http://www.w3.org/2000/svg" width="24" height="24" viewBox="0 0 24 24"><path d="m30.349 38.806 9.22-9.119 3.086-.306v3.084l1.7.168-9.167 9.168h-4.96l.116-2.995" style="fill:#fded59;fill-opacity:1;fill-rule:evenodd;stroke:none;stroke-width:.00607432" transform="translate(-24 -24)"/><path d="M32.48 38.512v-2.846l-1.513 1.515v2.845zm3.215-3.214v-2.846l-1.746 1.746v2.845zm1.469-4.314 1.67-1.672.001 2.846-1.67 1.67zm.681 7.122 1.74-1.74h-2.874l-1.74 1.74zm-2.96 2.961 1.491-1.492h-2.874l-1.492 1.493zm8.504-9.336h.832l.542-.543a.737.737 0 1 1 1.042 1.043l-3.854 3.854a.757.757 0 0 1-.122.122l-3.122 3.122a.675.675 0 0 1-.059.06l-2.935 2.934a.735.735 0 0 1-.581.213h-4.591l-3.262 3.262a.737.737 0 1 1-1.042-1.042l3.262-3.262-.001-4.636c0-.242.117-.458.298-.591l9.181-9.181a.735.735 0 0 1 .157-.158l.684-.684a.738.738 0 0 1 1.042 1.043l-.556.557v.802a.729.729 0 0 1 .066-.003h1.98l1.585-1.585a.737.737 0 1 1 1.042 1.043l-1.585 1.585v2.045zm-3.085 0h1.616v-1.613h-1.548a.487.487 0 0 1-.066-.004zm2.447 1.469h-2.873l-1.698 1.697h2.874l1.697-1.697" style="fill:#b08119;fill-opacity:1;fill-rule:evenodd;stroke:none;stroke-width:.00607432" transform="translate(-24 -24)"/></svg>