<svg xmlns="http://www.w3.org/2000/svg" width="24" height="24" viewBox="0 0 24 24"><path d="M13.035 11.373a3.61 3.61 0 1 0 0 7.22 3.61 3.61 0 0 0 0-7.22" style="display:inline;fill:#ffdf7d;fill-opacity:1;fill-rule:evenodd;stroke:none;stroke-width:.00617282"/><path d="M15.49 14.264c0 .957-.39 1.826-1.021 2.457v.003c-.63.63-1.5 1.02-2.46 1.02v-.003h-.004v.003a3.474 3.474 0 0 1-2.458-1.022 3.472 3.472 0 0 1-1.022-2.46h.003v-.003h-.003A3.47 3.47 0 0 1 9.547 11.8a3.472 3.472 0 0 1 2.46-1.023v.004h.002v-.004c.942 0 1.798.378 2.426.988l.032.034a3.471 3.471 0 0 1 1.023 2.46h-.003v.004zm.037-3.523a4.957 4.957 0 0 0-3.517-1.455v-.003h-.002v.003a4.96 4.96 0 0 0-3.52 1.455 4.962 4.962 0 0 0-1.455 3.518H7.03v.003h.003a4.963 4.963 0 0 0 1.499 3.558 4.96 4.96 0 0 0 3.474 1.416v.003h.003v-.003a4.964 4.964 0 0 0 3.518-1.457l.001.001a4.96 4.96 0 0 0 1.456-3.516h.003v-.004h-.003c0-1.376-.557-2.62-1.456-3.52" style="display:inline;fill:#f6a500;fill-opacity:1;fill-rule:evenodd;stroke:none;stroke-width:.00617282"/><path d="M17.414 17.61c-.538 1.063-1.384 1.927-2.603 2.436-.776.324-1.705.51-2.803.52-1.098-.01-2.027-.197-2.803-.52-1.22-.509-2.065-1.373-2.603-2.436-.56-1.107-.8-2.435-.787-3.82.015-1.71.415-3.498 1.069-5.067l.012-.026c.125-.299.269-.606.424-.903.167-.317.357-.648.566-.977C8.91 5.21 10.403 3.611 12.01 3.552h.003c.292.012.58.075.862.18.297.111.588.268.87.46 1.55 1.054 2.791 3.1 3.387 4.528.655 1.57 1.054 3.36 1.07 5.07.012 1.385-.228 2.714-.787 3.82zm1.098-9.463c-.673-1.615-2.102-3.947-3.93-5.19a5.597 5.597 0 0 0-1.187-.624 4.28 4.28 0 0 0-1.325-.274h-.017a.576.576 0 0 0-.066 0c-2.221.065-4.117 2.006-5.36 3.956a14.878 14.878 0 0 0-1.113 2.102l-.01.027v.003c-.723 1.732-1.165 3.72-1.181 5.632-.015 1.612.272 3.176.944 4.504.694 1.371 1.787 2.486 3.364 3.144.944.394 2.062.62 3.371.631h.012c1.308-.011 2.426-.237 3.37-.63 1.578-.659 2.67-1.774 3.364-3.145.672-1.327.96-2.892.945-4.504-.017-1.913-.458-3.9-1.18-5.632" style="fill:#f6a500;fill-opacity:1;fill-rule:evenodd;stroke:none;stroke-width:.00617282"/></svg>