<svg xmlns="http://www.w3.org/2000/svg" width="24" height="24" viewBox="0 0 24 24"><path d="M26.482 2645.143h2.35l2.085-2.733-.292-2.801c-2.828 1.635-3.998-1.257-6.22.214v.737c0 1.305.288 1.535.879 2.167.77.826.88 1.263 1.198 2.416" style="fill:#e5f4fd;fill-opacity:1;fill-rule:evenodd;stroke:none;stroke-width:.00462906" transform="matrix(1.33333 0 0 -1.33333 -24 3531.04)"/><path d="M30.047 2633.468a1.852 1.852 0 0 0-1.308-.546h-3.481c-.509 0-.972.21-1.308.545-.337.337-.546.801-.547 1.309h.002v5.638c0 .66.045 1.117.157 1.475.104.333.276.605.536.908h.001l.14.156c.646.716 1.23 1.364 1.483 2.638h2.551c.252-1.274.837-1.922 1.483-2.638l.14-.156.012-.013c.254-.298.423-.566.526-.895.112-.358.156-.815.156-1.475v-5.639h.002c0-.508-.208-.972-.545-1.308zm1.458 8.756c-.153.492-.393.877-.748 1.293a.289.289 0 0 1-.026.032l-.14.156c-.507.56-.966 1.073-1.184 1.976h.101a.56.56 0 0 1 0 1.12h-5.02a.56.56 0 0 1 0-1.12h.102c-.219-.903-.678-1.415-1.184-1.976l-.14-.156-.007-.01c-.366-.426-.612-.815-.768-1.317-.15-.48-.21-1.036-.21-1.808v-5.639h.003c0-.818.334-1.56.872-2.098a2.967 2.967 0 0 1 2.102-.874h3.481c.818 0 1.561.334 2.098.87.54.54.875 1.285.875 2.103h.002V2640.416c0 .772-.06 1.328-.21 1.808" style="fill:#a0d9f7;fill-opacity:1;fill-rule:evenodd;stroke:none;stroke-width:.00462906" transform="matrix(1.33333 0 0 -1.33333 -24 3531.04)"/></svg>