<svg xmlns="http://www.w3.org/2000/svg" width="24" height="24" viewBox="0 0 24 24"><path d="M85.263 64.05c-.45-2.585.405-5.361 2.095-7.452-1.62 1.31-3.65 2.117-5.686 2.205-.33.312-.66.634-.99.964-2.86 2.86-5.057 6.803-4.404 8.17.333.696 1.991-.092 2.336.251 1.234 1.235 3.12-.606 6.65-4.138zm5.463-8.627c1.023 1.15.035 1.736-.891 2.92-.127.162-.255.334-.385.517a26.026 26.026 0 0 0-2.089-2.265 26.338 26.338 0 0 0-1.25-1.213c1.869-1.02 3.506-1.205 4.615.042" style="fill:#ffcb00;fill-opacity:1;fill-rule:evenodd;stroke:none;stroke-width:.00641975" transform="translate(-72 -48)"/><path d="M91.591 66.198c-.109.355-.295.688-.57.99l-.014.014-.014.016a2.54 2.54 0 0 1-.82.6 1.928 1.928 0 0 1-1.218.112c-.438-.1-.877-.346-1.284-.727-.448-.42-.852-1-1.17-1.724-.86-1.96-.713-4.216.144-6.208a9.405 9.405 0 0 1 .81-1.492c2.045 2.112 4.054 4.895 4.248 7.183.038.44.01.856-.11 1.232zm-7.812-1.146-3.162-3.162a.78.78 0 0 0-1.102 1.102l3.106 3.105a9.415 9.415 0 0 1-1.755 1.112l-2.32-2.32a.779.779 0 1 0-1.101 1.102l1.777 1.777a6.66 6.66 0 0 1-.723.108 6.625 6.625 0 0 1-2.229-.189c-.86-3.41 1.066-6.22 3.45-8.239 1.814.328 3.71.066 5.436-.648a10.37 10.37 0 0 0-.7 2.573l-.778-.777a.78.78 0 0 0-1.101 1.102l1.79 1.79c.014.015.03.024.044.036.023.243.055.485.098.725-.233.275-.477.544-.73.802zm-7.03-8.765c-.38-.406-.627-.846-.727-1.284a1.92 1.92 0 0 1 .113-1.218c.124-.283.323-.56.6-.82l.015-.015.014-.016c.302-.274.635-.46.99-.568.376-.116.79-.148 1.231-.11 2.29.194 5.071 2.202 7.183 4.248a9.327 9.327 0 0 1-1.49.809c-1.993.858-4.249 1.005-6.21.145-.724-.319-1.303-.722-1.723-1.17zm11.182-2.416c.562 0 1.123.213 1.549.638a2.19 2.19 0 0 1 .64 1.549v.035a.79.79 0 0 0-.018.242 2.18 2.18 0 0 1-.457 1.087l-3.083-3.082a2.193 2.193 0 0 1 1.366-.474zm5.518 1.236c-.547-.176-1.078-.227-1.593-.139a3.138 3.138 0 0 0-.317.077 3.732 3.732 0 0 0-.913-1.588l-.042-.046a3.731 3.731 0 0 0-1.649-.957c.032-.109.06-.218.08-.33.09-.514.038-1.045-.138-1.592a.777.777 0 1 0-1.479.475 1.8 1.8 0 0 1 .083.856 1.48 1.48 0 0 1-.198.512 3.73 3.73 0 0 0-1.996 1.038 3.083 3.083 0 0 0-.137.148c-1.926-1.494-4.087-2.69-6.026-2.855a4.81 4.81 0 0 0-1.816.177 4.14 4.14 0 0 0-1.649.968c-.424.401-.736.846-.942 1.315a3.454 3.454 0 0 0-.204 2.186c.161.705.537 1.391 1.11 2.003.558.594 1.31 1.122 2.236 1.529.04.017.078.03.118.048-2.406 2.286-4.176 5.38-3.204 9.16l-.55.55a.78.78 0 0 0 1.101 1.102l.55-.55a8.162 8.162 0 0 0 2.765.237 8.39 8.39 0 0 0 2.86-.795c1.33-.63 2.51-1.581 3.531-2.657l.051.128c.407.927.935 1.678 1.53 2.236.611.573 1.296.948 2.002 1.11a3.453 3.453 0 0 0 2.185-.204c.47-.206.914-.519 1.315-.942h.001a4.127 4.127 0 0 0 .968-1.65c.178-.58.23-1.19.177-1.816-.163-1.924-1.344-4.07-2.824-5.985 0 0 .01-.01.012-.01l.01-.01.025-.025a.534.534 0 0 0 .044-.039l.022-.02a3.72 3.72 0 0 0 1.08-2.055c.161-.096.327-.16.495-.19a1.79 1.79 0 0 1 .856.084.777.777 0 0 0 .475-1.48" style="fill:#858384;fill-opacity:1;fill-rule:evenodd;stroke:none;stroke-width:.00641975" transform="translate(-72 -48)"/></svg>