<svg xmlns="http://www.w3.org/2000/svg" width="24" height="24" viewBox="0 0 24 24"><path d="M77.464 20.188c-2.985-6.745.164-12.736 4.072-14.359.359 3.768 8.175 9.078 11.852 6.975.128 2.006-1.601 3.772-3.846 6.228-2.244 2.457-8.893 2.765-12.078 1.156" style="display:inline;fill:#e0d2d1;fill-opacity:1;fill-rule:evenodd;stroke:none;stroke-width:.00637048" transform="translate(-72)"/><path d="m89.513 18.157-.01.01a8.507 8.507 0 0 1-1.1.903 7.871 7.871 0 0 1-1.154.66c-2.03.94-4.27.9-6.31.244l-.019-.006c-.337-.11-.723-.252-1.107-.392-.862-.318-1.715-.632-2.634-.773-.142-.92-.455-1.772-.772-2.634-.144-.388-.288-.78-.399-1.126v-.01a10.211 10.211 0 0 1-.31-1.22 9.41 9.41 0 0 1-.153-1.243c-.115-2.12.525-4.29 2.282-6.1 1.38-1.423 2.847-2.488 4.441-2.819-.12.459-.13.99-.017 1.58.188.97.719 2.13 1.65 3.385.418.562.916 1.146 1.501 1.741.458.467.905.879 1.337 1.236 1.367 1.134 2.652 1.801 3.728 2.07v-.001.001c.704.175 1.332.18 1.866.04-.328 1.6-1.394 3.07-2.82 4.454zm2.874-6.215c-.016.017-.033.03-.048.048l-.04.042c-.255.25-.765.307-1.46.133-.868-.217-1.938-.784-3.119-1.762-.402-.334-.812-.71-1.222-1.127a15.266 15.266 0 0 1-1.362-1.578c-.784-1.058-1.225-2-1.371-2.757-.115-.595-.046-1.029.178-1.253v-.002l.01-.008a.469.469 0 0 1 .055-.044c.015-.011.026-.025.04-.037 1.561.222 3.295 1.155 5.256 3.083 1.93 1.963 2.864 3.7 3.083 5.263zm-1.99-6.348-.01-.01c-2.812-2.768-5.318-3.746-7.599-3.567-2.283.18-4.264 1.516-6.07 3.377C74.626 7.551 73.863 10.13 74 12.65c.026.487.087.972.177 1.448.09.475.21.945.36 1.407v.01c.14.435.278.811.416 1.187.351.956.699 1.898.75 2.834.016.394.33.719.732.74.939.05 1.884.398 2.843.75.368.136.738.272 1.167.41l.02.006c2.382.768 5.016.807 7.427-.31.469-.217.932-.48 1.383-.792.448-.308.883-.663 1.3-1.067v-.003l.01-.005c1.861-1.806 3.197-3.788 3.377-6.07.18-2.282-.799-4.787-3.568-7.6" style="fill:#ca6e33;fill-opacity:1;fill-rule:evenodd;stroke:none;stroke-width:.00637048" transform="translate(-72)"/></svg>