<svg xmlns="http://www.w3.org/2000/svg" width="24" height="24" viewBox="0 0 24 24"><path d="M13.262 2605.756a5.48 5.48 0 0 1-.505-1.27 5.45 5.45 0 0 1 .651-4.228c1.127.622 2.084 1.667 2.728 3.158a5.953 5.953 0 0 1-2.874 2.34M11.907 2604.704a6.372 6.372 0 0 0 .498 1.312c-2.717.62-5.91-.538-7.735-3.564 2.407-2.534 5.463-3.44 7.932-2.56a6.324 6.324 0 0 0-.695 4.812M16.136 2603.416c.193-.297-.149.345 0 0" style="fill:#e5f3fc;fill-opacity:1;fill-rule:nonzero;stroke:none;stroke-width:.00362961" transform="matrix(1.33333 0 0 -1.33333 0 3483.04)"/><path d="M13.604 2604.658a.447.447 0 1 0 0-.893.447.447 0 0 0 0 .893" style="fill:#63c2d0;fill-opacity:1;fill-rule:evenodd;stroke:none;stroke-width:.00362961" transform="matrix(1.33333 0 0 -1.33333 0 3483.04)"/><path d="M13.406 2600.864a5.56 5.56 0 0 0-.598-.311 5.45 5.45 0 0 0-.304 4.969c.089.201.194.397.307.59.204-.091.403-.194.595-.31a5.625 5.625 0 0 0 2.194-2.467c-.513-1.096-1.283-1.922-2.194-2.471zm-5.985-1.81c-.298-.01-.474.055-.567.166-.103.123-.14.324-.14.554h.001v.378a7.526 7.526 0 0 1 2.389-.87 9.224 9.224 0 0 0-1.683-.229zm-2.8 4.279a7.487 7.487 0 0 0 1.895 2.011c.004 0 .008.01.011.01.4.289.821.528 1.254.718.01 0 .02.01.03.012a6.477 6.477 0 0 0 2.894.533c.43-.022.852-.091 1.262-.203a6.36 6.36 0 0 1-.602-1.507 6.32 6.32 0 0 1 .603-4.65 5.975 5.975 0 0 0-1.263-.202 6.479 6.479 0 0 0-2.893.53c-1.217.527-2.342 1.44-3.192 2.75zm-1.18-.17a24.093 24.093 0 0 1-1.039-1.62v3.58c.384-.655.779-1.257 1.158-1.79l-.118-.17zm3.272 3.679c0 .23.038.431.14.554.094.111.27.177.568.167a9.034 9.034 0 0 0 1.566-.202 7.494 7.494 0 0 1-1.523-.471c-.013-.01-.026-.012-.038-.018a7.752 7.752 0 0 1-.71-.358v.328zm9.756-3.3c-.589 1.344-1.51 2.351-2.608 3.013-.397.24-.818.43-1.254.58-.004 0-.008 0-.012.01-.809.3-1.644.609-2.49.847-.866.245-1.754.421-2.656.452-.605.02-1.008-.167-1.27-.48-.252-.301-.343-.696-.343-1.119h-.002v-.91a8.321 8.321 0 0 1-1.747-1.819 22.981 22.981 0 0 0-1.45 2.403c-.097.186-.186.362-.265.525a.44.44 0 0 1-.85-.166v-7.09a.44.44 0 0 1 .836-.192 22.311 22.311 0 0 0 1.728 2.958 8.309 8.309 0 0 1 1.748-1.82v-.96h.002c0-.422.091-.817.343-1.118.261-.313.665-.5 1.27-.48.902.03 1.79.207 2.656.451.846.239 1.681.547 2.49.849a.44.44 0 0 1 .158.104c.384.14.755.318 1.108.53 1.109.669 2.037 1.688 2.625 3.049a.44.44 0 0 1-.017.382" style="fill:#63c2d0;fill-opacity:1;fill-rule:evenodd;stroke:none;stroke-width:.00362961" transform="matrix(1.33333 0 0 -1.33333 0 3483.04)"/></svg>