<svg xmlns="http://www.w3.org/2000/svg" width="24" height="24" viewBox="0 0 24 24"><path d="M6.59 75.501c-.545.572-1.752 1.975-2.735 3.218-2.331 2.962-1.206 9.024 3.455 9.024v-.023l.01.023c4.667 0 5.792-6.062 3.455-9.024-.977-1.243-2.187-2.646-2.735-3.218-.228-.24-.476-.364-.72-.367l-.01.026v-.026c-.238 0-.48.127-.72.367" style="fill:#fff;fill-opacity:1;fill-rule:evenodd;stroke:none;stroke-width:.00597103" transform="translate(0 -72)"/><path d="M15.821 78.248c-.375.468-.777.98-1.139 1.466-2.01 2.69-1.039 8.199 2.979 8.199v-.021l.008.021c4.023 0 4.993-5.508 2.979-8.199-.842-1.13-1.887-2.404-2.358-2.924-.196-.217.17-1.074-.04-1.076l-.187.244-.442-.435c-.222.594-1.29 2.09-1.8 2.725M8.5 83.766c.984-1.244 2.191-2.647 2.736-3.219.152-.151.304-.251.456-.31a4.39 4.39 0 0 0-.336-.523c-.842-1.13-1.886-2.404-2.358-2.924-.196-.217.171-1.074-.04-1.076l-.187.244-.442-.435c-.222.594-1.29 2.09-1.8 2.725-.374.468-.776.98-1.138 1.466-1.824 2.442-1.193 7.205 1.944 8.064-.069-1.454.32-2.938 1.165-4.012" style="fill:#f6e9da;fill-opacity:1;fill-rule:evenodd;stroke:none;stroke-width:.00597103" transform="translate(0 -72)"/><path d="M11.176 83.294c-.376.468-.777.98-1.14 1.466-2.01 2.69-1.039 8.2 2.98 8.2v-.022l.007.021c4.023 0 4.993-5.508 2.979-8.199-.842-1.13-1.886-2.404-2.358-2.924-.196-.217.171-1.074-.04-1.076l-.187.245-.442-.436c-.222.594-1.29 2.09-1.8 2.725" style="fill:#f6e9da;fill-opacity:1;fill-rule:evenodd;stroke:none;stroke-width:.00597103" transform="translate(0 -72)"/><path d="M18.794 81.178a.723.723 0 0 0-.648.79c.064.631.011 1.54-.286 2.184-.05.109-.106.205-.164.282a.861.861 0 0 1-.157.164H17.53l-.008.01a.724.724 0 0 0 .855 1.167l.008-.01.03-.024c.164-.126.309-.277.436-.446.126-.17.233-.352.322-.544.415-.897.494-2.106.41-2.932a.722.722 0 0 0-.79-.648M14.148 86.224a.723.723 0 0 0-.648.79c.064.632.012 1.54-.286 2.184-.05.109-.105.205-.164.282a.841.841 0 0 1-.157.164H12.884l-.008.01a.724.724 0 0 0 .855 1.167l.008-.01.03-.024c.164-.126.309-.277.436-.446.127-.17.234-.352.322-.544.415-.897.495-2.106.41-2.931a.723.723 0 0 0-.79-.648" style="fill:#dec07d;fill-opacity:1;fill-rule:evenodd;stroke:none;stroke-width:.00597103" transform="translate(0 -72)"/><path d="M20.264 84.478c-.266.817-.718 1.542-1.357 2.045a3.424 3.424 0 0 1-1.578.686 7.5 7.5 0 0 0-.054-.556c-.158-1.137-.578-2.225-1.258-3.088a1.385 1.385 0 0 0-.038-.045l-.017-.021h.002c-.587-.746-1.19-1.51-1.614-2.305-.225-.422-.487-.852-.826-1.193-.032-.032-.066-.062-.1-.093.1-.173.207-.34.328-.493l.053-.067c.616-.784 1.249-1.586 1.742-2.506l.004-.01h.004c.17-.319.36-.635.577-.853.152-.153.32-.255.507-.255.186 0 .354.102.506.255.217.218.407.534.577.853.494.926 1.13 1.733 1.75 2.52h.003l.017.02a.98.98 0 0 0 .033.048c.518.656.84 1.5.964 2.391.124.894.05 1.83-.225 2.673zm-4.646 5.046c-.265.817-.718 1.542-1.357 2.045a3.44 3.44 0 0 1-1.677.704 4.548 4.548 0 0 1-.314.03h-.278c-.13 0-.264-.01-.393-.017h-.066l-.036-.01-.093-.01H11.4a3.44 3.44 0 0 1-1.678-.704c-.638-.504-1.091-1.228-1.357-2.045a6.055 6.055 0 0 1-.224-2.674c.124-.89.446-1.734.963-2.391l.053-.067c.617-.783 1.25-1.586 1.743-2.506l.004-.01h.003c.17-.319.36-.635.578-.853.152-.153.32-.255.506-.255.187 0 .354.102.506.255.218.218.408.535.578.853.494.926 1.13 1.733 1.75 2.52h.002l.017.02a.98.98 0 0 0 .034.048c.518.657.84 1.5.963 2.391.124.894.05 1.83-.224 2.673zm-7.65-5.96c-.68.864-1.1 1.952-1.258 3.09a7.5 7.5 0 0 0-.054.555 3.419 3.419 0 0 1-1.578-.686c-.639-.503-1.091-1.228-1.357-2.045a6.055 6.055 0 0 1-.224-2.673c.124-.891.445-1.735.963-2.392l.053-.067c.617-.783 1.25-1.586 1.742-2.506l.004-.01h.004c.17-.319.36-.634.577-.853.152-.153.32-.255.507-.255.186 0 .354.102.506.255.218.219.408.534.577.853.494.926 1.13 1.733 1.75 2.52h.003l.017.021a.98.98 0 0 0 .034.047c.12.153.228.32.327.493-.033.03-.067.06-.1.093-.336.34-.598.767-.823 1.187l-.012.02c-.423.79-1.022 1.549-1.605 2.29Zm13.953-1.957c-.158-1.138-.578-2.225-1.258-3.088a1.39 1.39 0 0 0-.038-.045l-.017-.021h.002c-.587-.746-1.19-1.51-1.614-2.305-.225-.422-.487-.852-.827-1.193-.404-.407-.9-.68-1.53-.68-.632 0-1.127.273-1.532.68-.337.34-.598.767-.823 1.187h-.001l-.011.02c-.424.789-1.022 1.548-1.606 2.29l-.052.066c-.198.251-.373.522-.526.807-.032 0-.063-.01-.095-.01-.033 0-.064 0-.096.01a5.505 5.505 0 0 0-.564-.852l-.016-.02h.002c-.588-.746-1.19-1.511-1.614-2.306-.225-.422-.488-.852-.827-1.193-.405-.407-.9-.679-1.53-.679-.632 0-1.127.272-1.532.679-.337.34-.599.767-.824 1.188l-.011.02c-.424.788-1.022 1.548-1.606 2.289l-.053.067c-.68.863-1.1 1.95-1.257 3.088a7.511 7.511 0 0 0 .28 3.318c.351 1.078.963 2.046 1.84 2.736.65.512 1.441.868 2.373.997h.026l.092.013h.028c.058.442.152.877.288 1.294.35 1.078.963 2.047 1.838 2.736.651.513 1.442.868 2.374.997h.019l.007.001.093.012h.056l.052.01h.043c.169.014.344.022.52.022H12.357c.14-.01.283-.022.424-.042h.003a4.865 4.865 0 0 0 2.374-.997c.876-.69 1.488-1.658 1.838-2.736.136-.419.231-.856.289-1.299.047-.01.095-.01.142-.014h.003a4.865 4.865 0 0 0 2.374-.997c.876-.69 1.488-1.658 1.838-2.736a7.512 7.512 0 0 0 .281-3.318" style="fill:#dec07d;fill-opacity:1;fill-rule:evenodd;stroke:none;stroke-width:.00597103" transform="translate(0 -72)"/></svg>