<svg xmlns="http://www.w3.org/2000/svg" width="24" height="24" viewBox="0 0 24 24"><path d="M90.912 82.563c-.667.76-1.952 1.033-2.87.61-.918-.425-1.122-1.384-.455-2.145.667-.76 1.952-1.033 2.87-.61.919.425 1.122 1.384.455 2.145zm-4.048-3.14c-.555.428-1.465.442-2.033.032-.567-.411-.578-1.091-.024-1.519.555-.428 1.465-.442 2.033-.032.567.41.578 1.09.023 1.519zm-2.41 4.463c-.917.684-2.401.684-3.317 0-.917-.684-.917-1.793 0-2.478.916-.685 2.4-.685 3.316 0 .916.685.916 1.794 0 2.478zm.487-7.705c-2.155 0-4.287.908-5.856 2.158.531-.232 1.217-.193 1.68.137.558.4.572 1.066.03 1.49-.541.423-1.433.441-1.993.042-.419-.3-.532-.748-.335-1.132-2.037 1.937-2.727 4.428-.414 5.725 2.013 1.129 4.45 1.69 6.888 1.686 2.437 0 4.875-.557 6.887-1.686 4.126-2.313-1.302-8.425-6.887-8.42" style="fill:#eae2ec;fill-opacity:1;fill-rule:evenodd;stroke:none;stroke-width:.00572204" transform="translate(-72 -72)"/><path d="M92.572 82.705c-.15.456-.522.874-1.165 1.214-1.393.737-2.986 1.235-4.65 1.492a17.145 17.145 0 0 1-2.129.198c-.2.01-.396.01-.585.01-1.705 0-3.41-.239-4.987-.723a13.576 13.576 0 0 1-1.865-.72l-.03-.014c-.178-.085-.34-.166-.483-.24-.642-.341-1.015-.76-1.165-1.215-.164-.5-.078-1.082.2-1.685.31-.673.853-1.362 1.56-1.998 1.67-1.504 4.208-2.673 6.77-2.67 2.562 0 5.1 1.166 6.77 2.67.707.636 1.25 1.325 1.56 1.998.278.603.364 1.185.2 1.685zm-6.412 7.603a1.161 1.161 0 0 1-.275.546c-.4.46-1.127.69-1.87.69h-.01a3.35 3.35 0 0 1-1.018-.163c-.565-.19-1.015-.553-1.122-1.081-.23-1.127-.231-2.276-.097-3.44a19.092 19.092 0 0 0 2.894.123 19.44 19.44 0 0 0 1.157-.07c.15-.015.294-.03.438-.047.132 1.162.13 2.308-.1 3.433zm7.471-9.869c-.39-.845-1.047-1.689-1.89-2.448-1.892-1.703-4.775-3.026-7.698-3.023-2.924 0-5.806 1.32-7.699 3.023-.843.76-1.5 1.603-1.89 2.448-.423.917-.539 1.844-.26 2.695.261.792.851 1.489 1.838 2.011.19.101.367.19.531.268.014.01.027.013.041.018a15.772 15.772 0 0 0 2.044.787c.57.175 1.156.319 1.75.435-.154 1.307-.155 2.615.114 3.932.22 1.074 1.032 1.778 2.04 2.118a4.482 4.482 0 0 0 1.458.232h.01c1.112 0 2.24-.389 2.916-1.167a2.599 2.599 0 0 0 .585-1.18c.268-1.312.27-2.616.117-3.918 1.569-.302 3.073-.81 4.42-1.522.986-.523 1.576-1.22 1.836-2.012.28-.85.163-1.777-.259-2.694" style="fill:#aa95a9;fill-opacity:1;fill-rule:evenodd;stroke:none;stroke-width:.00572204" transform="translate(-72 -72)"/></svg>