<svg xmlns="http://www.w3.org/2000/svg" width="24" height="24" viewBox="0 0 24 24"><path d="M19.94 33.571c.89.891.742 2.483-.332 3.556-1.073 1.074-2.665 1.222-3.555.332-.89-.891-.743-2.483.33-3.556 1.074-1.074 2.666-1.222 3.556-.332M11.971 41.877c.89.89 2.483.742 3.556-.332 1.074-1.073 1.222-2.665.331-3.555-.89-.891-2.482-.743-3.555.33-1.074 1.074-1.222 2.666-.332 3.557M10.982 41.33c.89.747.742 2.086-.33 2.988-1.074.902-2.666 1.026-3.557.278-.89-.748-.742-2.086.331-2.989 1.074-.902 2.666-1.026 3.556-.278" style="fill:#d6e9d8;fill-opacity:1;fill-rule:evenodd;stroke:none;stroke-width:.00592676" transform="translate(0 -24)"/><path d="m18.38 32.844-.002-.002-.006-.005c-.33-.23-.756-.275-1.18-.161-.458.124-.906.427-1.24.882l-.024.039c-.48.678-.576 1.474-.311 2.054.044.098.1.189.165.272l.01.012c.067.082.145.156.233.22l.003.002.006.004c.329.23.756.276 1.18.161.457-.123.904-.426 1.238-.88.008-.014.017-.028.026-.04l.008-.012h.001c.332-.474.475-1.01.437-1.495-.034-.433-.218-.818-.544-1.051zm.819-1.176.008.005.005.004c.692.493 1.08 1.264 1.146 2.113.062.795-.166 1.666-.697 2.424v.002l-.008.013a.633.633 0 0 1-.04.05c-.536.735-1.27 1.228-2.028 1.433-.82.22-1.674.113-2.371-.375l-.006-.004-.008-.006-.005-.004v.001a2.643 2.643 0 0 1-.52-.49l-.015-.018a2.748 2.748 0 0 1-.347-.569c-.467-1.025-.337-2.375.44-3.476a.7.7 0 0 1 .041-.053c.536-.733 1.27-1.225 2.028-1.43.82-.22 1.674-.113 2.37.375l.007.004" style="display:inline;fill:#009540;fill-opacity:1;fill-rule:evenodd;stroke:none;stroke-width:.00592676" transform="translate(0 -24)"/><path d="m10.674 41.25-.006-.004v-.002l-.006-.007-.007-.007c-.593-.603-.842-1.425-.764-2.267.074-.785.433-1.592 1.062-2.242a.624.624 0 0 1 .039-.042l.007-.007.008-.008v.001h.002c.656-.653 1.479-1.025 2.28-1.1.825-.076 1.63.16 2.229.727a.686.686 0 0 1 .047.044l.006.005c.687.687.92 1.666.724 2.637a3.71 3.71 0 0 1-.567 1.344c-.127.189-.277.373-.45.55a.682.682 0 0 1-.038.042l-.01.009v-.002l-.001.002c-.657.651-1.48 1.024-2.28 1.098-.825.077-1.631-.16-2.23-.728a.626.626 0 0 1-.046-.042zm1.011-1.022.006.005.027.028c.284.263.683.372 1.104.333.48-.045.982-.278 1.395-.687v-.001l.007-.01.03-.027c.104-.108.2-.226.284-.351.18-.265.298-.546.353-.82.103-.51-.004-1.008-.336-1.34l-.006-.006-.027-.028c-.284-.263-.683-.371-1.103-.331-.48.044-.982.277-1.395.686v.001l-.008.008-.007.007-.031.029c-.393.408-.616.899-.66 1.367-.04.435.077.846.36 1.132l.005.006.001-.001" style="display:inline;fill:#009540;fill-opacity:1;fill-rule:evenodd;stroke:none;stroke-width:.00592676" transform="translate(0 -24)"/><path d="m6.737 39.484.79.075a.719.719 0 0 0-.79-.075zm3.27 1.466-.002-.002c-.322-.499-.983-.702-1.67-.573a2.607 2.607 0 0 0-.874.35c-.702.445-1.094 1.147-1.069 1.786a1.295 1.295 0 0 0 .196.627v.002l-.001.001c.217.337.592.54 1.023.595.471.06 1.004-.053 1.491-.352l.033-.022c.702-.445 1.093-1.147 1.068-1.785a1.3 1.3 0 0 0-.17-.589zm1.223-.755.001.002c.01.015.017.03.025.045a2.624 2.624 0 0 1 .379 1.28c.045 1.128-.59 2.33-1.732 3.054a.627.627 0 0 1-.043.025c-.775.48-1.645.657-2.43.557-.844-.108-1.594-.533-2.053-1.248h-.001l-.004-.005-.007-.012h-.001l-.001-.002a2.623 2.623 0 0 1-.403-1.323c-.046-1.128.59-2.332 1.73-3.056l.047-.028a3.856 3.856 0 0 1 1.334-.52c1.258-.234 2.505.2 3.154 1.223l.005.009" style="display:inline;fill:#009540;fill-opacity:1;fill-rule:evenodd;stroke:none;stroke-width:.00592676" transform="translate(0 -24)"/><path d="M4.669 44.023a.718.718 0 0 1-.832 1.169c-.916-.653-1.358-1.525-1.443-2.47-.073-.82.135-1.681.54-2.48a6.77 6.77 0 0 1 1.66-2.076v-.001c.955-.806 2.13-1.34 3.324-1.358.019-.084.04-.168.066-.251.25-.839.832-1.606 1.546-2.168.714-.562 1.582-.93 2.402-.971l.073-.003c.16-1.114.622-2.025 1.266-2.735a5.471 5.471 0 0 1 2.062-1.403c.76-.299 1.583-.442 2.388-.43 1.287.02 2.535.436 3.424 1.242a.719.719 0 0 1-.967 1.062c-.622-.564-1.525-.857-2.474-.87a4.883 4.883 0 0 0-1.848.334 4.038 4.038 0 0 0-1.523 1.031c-.561.62-.93 1.46-.955 2.53a.72.72 0 0 1-.922.725 1.342 1.342 0 0 0-.457-.05c-.514.025-1.087.279-1.582.668-.496.39-.894.904-1.057 1.448a1.721 1.721 0 0 0-.076.578.717.717 0 0 1-.845.74c-.994-.184-2.058.251-2.919.977v-.002l-.003.002a5.304 5.304 0 0 0-1.301 1.626c-.291.575-.442 1.17-.394 1.712.048.538.307 1.04.847 1.424" style="display:inline;fill:#009540;fill-opacity:1;fill-rule:evenodd;stroke:none;stroke-width:.00592676" transform="translate(0 -24)"/><path d="M3.743 44.14c3.78 0 6.023.309 8.264-2.864 1.1-1.587 3.43-1.587 4.177-3.658.659-1.807 2.9-4.671 3.912-6.435 1.099-1.894.923 1.5.835 2.337-.308 2.291-5.539 9.606-7.737 10.444-2.286.837-4.791 1.19-7.253 1.19-.396 0-2.462-.661-2.198-1.013" style="display:inline;fill:#d6e9d8;fill-opacity:1;fill-rule:evenodd;stroke:none;stroke-width:.00592676" transform="translate(0 -24)"/><path d="M3.595 44.822a.717.717 0 0 1 .281-1.406c.167.034.344.057.532.069 2.639.163 6.257-1.942 9.362-4.722 3.13-2.803 5.693-6.252 6.2-8.754.04-.196.066-.389.077-.577a.718.718 0 0 1 1.434.084 5.69 5.69 0 0 1-.106.774c-.568 2.802-3.315 6.555-6.65 9.54-3.357 3.007-7.355 5.276-10.401 5.088a5.327 5.327 0 0 1-.729-.096" style="display:inline;fill:#009540;fill-opacity:1;fill-rule:evenodd;stroke:none;stroke-width:.00592676" transform="translate(0 -24)"/><path d="M3.9 45.2a.717.717 0 0 1 .696-1.255l.002.001.01.006c.41.232.858.4 1.332.506.486.11 1.002.157 1.534.147 2.843-.052 6.146-1.698 8.452-4.123a16.454 16.454 0 0 0 1-1.032c.3-.339.584-.69.85-1.048 1.345-1.815 2.177-3.807 2.404-5.805l.001-.008c.028-.246.047-.494.057-.738.012-.265.015-.532.012-.798a20.432 20.432 0 0 0-.508-4.135.718.718 0 0 1 1.4-.32c.3 1.297.52 2.926.54 4.439.005.3.001.593-.01.87-.013.298-.034.58-.063.84l-.001.008c-.257 2.252-1.184 4.481-2.68 6.501a17.757 17.757 0 0 1-1.976 2.228c-2.552 2.678-6.245 4.495-9.455 4.554a7.832 7.832 0 0 1-1.872-.18 6.28 6.28 0 0 1-1.724-.659" style="display:inline;fill:#009540;fill-opacity:1;fill-rule:evenodd;stroke:none;stroke-width:.00592676" transform="translate(0 -24)"/></svg>