<svg xmlns="http://www.w3.org/2000/svg" width="442.2166931152344" height="99.30780901553524" viewBox="0 -9 370.0169491525424 83.0940421088455">
  <g transform="matrix(1.4818810682940162,0,0,1.4818810682940162,-2.9286546293605547,-19.373167478058114)">
    <path d="m55.49207,24.82007c-1.74194-3.2973-2.57507-7.08136-2.47986-10.87061,4.23608-.67639,3.81512-6.86743-.50006-6.94946.00006,0-10.99994,0-10.99994,0-4.31.08057-4.7406,6.27234-.5,6.94946.09528,3.78992-.73792,7.57281-2.47998,10.87054-.75122,1.49121-1.72607,2.85669-2.78998,4.1499-1.46826,1.93628-2.61322,4.34961-3.16003,6.7901-2.1781,7.99805,1.81305,18.61237,9.74011,21.23999-.00012,0,9.37988,0,9.37988,0,8.31549-2.77271,12.16504-14.09021,9.47003-22.29004-.94342-3.89465-3.89093-6.49622-5.68018-9.88989Zm-3.99982,30.17993h-8.96002c-3.50629-1.54315-6.33356-4.88574-7.64728-9h24.25458c-1.31372,4.11426-4.14105,7.45685-7.64728,9Zm-15.03473-14.76172c.45898-.30566,1.07959-.18262,1.38672.27734.5293.79297,1.80664.79297,2.33594,0,.63281-.94922,1.69141-1.51562,2.83203-1.51562s2.19922.56641,2.83203,1.51562c.5293.79297,1.80664.79297,2.33594,0,1.24805-1.99719,4.41602-1.99738,5.66406.00006.5293.79291,1.80664.79291,2.33594-.00006.73993-1.07996,2.37805.00262,1.66406,1.10938-.63281.94922-1.69141,1.51562-2.83203,1.51562s-2.19922-.56641-2.83203-1.51562c-.5293-.79297-1.80664-.79297-2.33594,0-.63281.94922-1.69141,1.51562-2.83203,1.51562s-2.19922-.56641-2.83203-1.51562c-.5293-.79297-1.80664-.79297-2.33594,0-1.24744,1.99719-4.41638,1.99731-5.66406-.00012-.30615-.45886-.18213-1.07996.27734-1.3866Zm-1.87256-4.23828c.461-1.92261,1.31665-3.78027,2.41724-5.35004.39203.70953,1.25952.97656,1.81006.27997-.00006.00006,1.74994-2.32996,1.74994-2.32996.59985-.73712-.26758-1.52478-.66998-2.09998,2.1496-3.7381,3.22064-8.1076,3.12-12.5h8c-.10065,4.39252.97046,8.76178,3.12,12.5-.40338.57855-1.26971,1.35986-.66992,2.09998-.00006,0,1.74994,2.33002,1.74994,2.33002.54956.6958,1.41858.43005,1.81-.28003,1.10577,1.57294,1.94751,3.42468,2.42285,5.35004h-24.86011Z"></path>
    <path d="m24.01221,55c-5.50165,0-10.69049-1.82336-14.46509-5h22.64941c-.32709-.67108-.61859-1.36646-.87634-2.08569-.86554-.17987-1.63837-.67743-2.14001-1.42993-.5293-.79297-1.80664-.79297-2.33594,0-1.24921,1.99719-4.4151,1.99731-5.66406-.00012-.5293-.79285-1.80664-.79285-2.33594.00012-1.24811,1.99719-4.41589,1.99731-5.66406-.00012-.5293-.79285-1.80664-.79285-2.33594.00012-.742,1.0791-2.37732-.00244-1.664-1.10944,1.24957-1.99713,4.41479-1.99731,5.664.00012.5293.79291,1.80664.79291,2.33594-.00006.63281-.94922,1.69141-1.51562,2.83203-1.51562s2.19922.56641,2.83203,1.51562c.5293.79297,1.80664.79297,2.33594,0,1.1286-1.79968,3.89008-2.02576,5.28943-.43481-.1972-.96307-.33606-1.94366-.40277-2.94019h-5.33521c.02454-.02637.05835-.03705.08057-.06671l1.75-2.33331c.26672-.35553.26672-.84442,0-1.20001l-1.75-2.33331c-.02222-.0296-.05603-.04034-.08057-.06665h5.75153c.24567-1.30371.67047-2.68811,1.21265-3.9361-.3371.07159-.64893.25732-.85156.5611-1.24963,1.99719-4.41479,1.99731-5.66406-.00012-.53027-.7948-1.80566-.7948-2.33594.00012-1.24847,1.99719-4.41565,1.99731-5.66406-.00012-.53027-.7948-1.80566-.7948-2.33594.00012-1.24738,1.99719-4.41644,1.99731-5.66406-.00012-.71545-1.09094.92926-2.19525,1.66412-1.10919.52924.79388,1.80658.79388,2.33588-.00006,1.24927-1.99719,4.4151-1.99731,5.66406.00006.5293.79388,1.80664.79388,2.33594-.00006.63281-.94922,1.69141-1.51562,2.83203-1.51562s2.19922.56641,2.83203,1.51562c.5293.79395,1.80664.79395,2.33594,0,.74451-1.12769,2.15875-1.74109,3.48444-1.43488.40326-.72845.83978-1.42792,1.31976-2.08075H9.56043c1.75568-1.47156,3.8515-2.6983,6.1618-3.54004,2.18652-.73657,2.81177-3.51624,1.95001-5.45996h11.67999c-.9115,1.92505-.04425,4.51672,2.10004,5.15991,1.4389.46399,2.79694,1.07233,4.06171,1.78705.37524-.54608.72534-1.11658,1.04791-1.71295-1.39746-.79443-2.90314-1.46271-4.48969-1.974-.77179-.24396-1.14197-1.00024-1.05994-1.76001-.00006-.83002.66998-1.5,1.49994-1.5h1c1.92969,0,3.5-1.57031,3.5-3.5s-1.57031-3.5-3.5-3.5H14.51221c-4.61993.14563-4.62939,6.85144.00012,7,.8299,0,1.49988.66998,1.49988,1.5.04913.76746-.01709,1.59381-.78522,1.97705-6.47815-6.80756-17.80975,1.64246-11.2995,9.18585-3.55994,6.28522-1.96222,14.14746,3.38483,19.05701,6.70898,6.65588,19.3028,8.14392,27.90472,3.77295-.4649-.51129-.90387-1.04974-1.31396-1.61823-2.97748,1.37012-6.36737,2.12537-9.89087,2.12537Zm-7.45001-16.60004l-1.75-2.33331c-.02222-.0296-.05603-.04034-.08057-.06665h8.56116c-.02454.02631-.05835.03705-.08057.06665l-1.75,2.33331c-.26666.35559-.26666.84448,0,1.20001l1.75,2.33331c.02222.02966.05597.04034.08057.06671h-8.56116c.02454-.02637.05835-.03705.08057-.06671l1.75-2.33331c.26672-.35553.26672-.84442,0-1.20001Zm-7.04999-16.39996c1.40228,0,2.72705.48596,3.73517,1.33661-3.32733,1.53674-6.15112,3.67181-8.21234,6.5639-2.6582-3.28644.21069-8.00623,4.47717-7.90051Zm-4.76575,20c.02136-.02411.04694-.0437.06573-.07001l1.75-2.33002c.27002-.35999.27002-.83997,0-1.20001l-1.75-2.32996c-.0188-.02631-.04437-.0459-.06573-.07001h8.54633c-.02454.02631-.05835.03705-.08057.06665l-1.75,2.33331c-.26666.35559-.26666.84448,0,1.20001l1.75,2.33331c.02222.02966.05597.04034.08057.06671H4.74647Z"></path>
    <path d="m46.21223,25.06665l-1.75,2.33331c-.26666.35559-.26666.84448,0,1.20001l1.75,2.33331c.40002.53339,1.20001.53339,1.59998,0,2.58649-3.53461,2.58319-2.33453,0-5.86664-.39996-.53333-1.19995-.53333-1.59998,0Z"></path>
  </g>
  <g transform="matrix(1.0174357453038643,0,0,1.0174357453038643,106.96512850939227,-5.488282839649788)">
    <path d="M2.52 40 c-0.28 0 -0.52 -0.24 -0.52 -0.52 l0 -23.96 c0 -0.28 0.24 -0.52 0.52 -0.52 l5.2 0 c0.28 0 0.52 0.24 0.52 0.52 l0 18.72 l9 0 c0.28 0 0.52 0.24 0.52 0.52 l0 4.72 c0 0.28 -0.24 0.52 -0.52 0.52 l-14.72 0 z M22.28 40 c-0.16 0 -0.32 -0.08 -0.4 -0.24 c-0.12 -0.12 -0.12 -0.32 -0.08 -0.48 l9.32 -23.96 c0.08 -0.2 0.28 -0.32 0.48 -0.32 l5.36 0 c0.2 0 0.4 0.12 0.48 0.32 l9.16 23.96 c0.04 0.16 0.04 0.32 -0.08 0.48 c-0.08 0.16 -0.24 0.24 -0.4 0.24 l-5.56 0 c-0.2 0 -0.4 -0.12 -0.48 -0.32 l-1.48 -3.68 l-9 0.04 l-1.48 3.64 c-0.08 0.2 -0.28 0.32 -0.48 0.32 l-5.36 0 z M31.240000000000002 31 l5.76 0 l-2.88 -8.48 z M73.64 40 c-2.36 0 -4.52 -0.56 -6.44 -1.68 c-1.92 -1.16 -3.44 -2.72 -4.52 -4.68 s-1.64 -4.16 -1.64 -6.6 c0 -2.36 0.56 -4.56 1.68 -6.52 c1.12 -1.92 2.68 -3.48 4.6 -4.6 c1.96 -1.12 4.16 -1.68 6.48 -1.68 c1.76 0 3.48 0.4 5.16 1.12 c1.68 0.76 3.12 1.76 4.32 3.04 c0.16 0.2 0.16 0.48 0 0.68 l-3.8 3.12 c-0.12 0.12 -0.24 0.2 -0.4 0.2 s-0.32 -0.08 -0.4 -0.2 c-2.04 -2.48 -5.32 -3 -8.08 -1.28 c-2.4 1.48 -3.28 4.2 -3.16 6.92 c0.12 2.76 2.12 5.12 4.76 5.92 c2.4 0.72 4.76 0.16 6.48 -1.68 c0.12 -0.08 0.24 -0.16 0.4 -0.12 c0.16 0 0.28 0.04 0.36 0.16 l3.88 2.72 c0.16 0.2 0.16 0.48 0 0.68 c-1.28 1.36 -2.8 2.48 -4.48 3.28 c-1.72 0.8 -3.48 1.2 -5.2 1.2 z M85.96000000000001 40 c-0.16 0 -0.32 -0.08 -0.4 -0.24 c-0.12 -0.12 -0.12 -0.32 -0.08 -0.48 l9.32 -23.96 c0.08 -0.2 0.28 -0.32 0.48 -0.32 l5.36 0 c0.2 0 0.4 0.12 0.48 0.32 l9.16 23.96 c0.04 0.16 0.04 0.32 -0.08 0.48 c-0.08 0.16 -0.24 0.24 -0.4 0.24 l-5.56 0 c-0.2 0 -0.4 -0.12 -0.48 -0.32 l-1.48 -3.68 l-9 0.04 l-1.48 3.64 c-0.08 0.2 -0.28 0.32 -0.48 0.32 l-5.36 0 z M94.92000000000002 31 l5.76 0 l-2.88 -8.48 z M114.44000000000001 40 c-0.28 0 -0.52 -0.24 -0.52 -0.52 l0 -23.96 c0 -0.28 0.24 -0.52 0.52 -0.52 l4.72 0 c0.16 0 0.32 0.08 0.44 0.2 l9.2 14.2 l0 -13.88 c0 -0.28 0.24 -0.52 0.52 -0.52 l4.92 0 c0.28 0 0.52 0.24 0.52 0.52 l0 23.96 c0 0.28 -0.24 0.52 -0.52 0.52 l-4.72 0 c-0.16 0 -0.32 -0.08 -0.44 -0.2 l-9.16 -14.12 l0 13.8 c0 0.28 -0.24 0.52 -0.52 0.52 l-4.96 0 z M145.24 40 c-0.28 0 -0.48 -0.24 -0.48 -0.52 l0 -18.88 l-5.48 0 c-0.28 0 -0.52 -0.2 -0.52 -0.48 l0 -4.6 c0 -0.28 0.24 -0.52 0.52 -0.52 l17.16 0 c0.32 0 0.52 0.24 0.52 0.52 l0 4.6 c0 0.28 -0.2 0.48 -0.52 0.48 l-5.48 0 l0 18.88 c0 0.28 -0.24 0.52 -0.52 0.52 l-5.2 0 z M159.08 40 c-0.16 0 -0.32 -0.08 -0.4 -0.24 c-0.12 -0.12 -0.12 -0.32 -0.08 -0.48 l9.32 -23.96 c0.08 -0.2 0.28 -0.32 0.48 -0.32 l5.36 0 c0.2 0 0.4 0.12 0.48 0.32 l9.16 23.96 c0.04 0.16 0.04 0.32 -0.08 0.48 c-0.08 0.16 -0.24 0.24 -0.4 0.24 l-5.56 0 c-0.2 0 -0.4 -0.12 -0.48 -0.32 l-1.48 -3.68 l-9 0.04 l-1.48 3.64 c-0.08 0.2 -0.28 0.32 -0.48 0.32 l-5.36 0 z M168.04 31 l5.76 0 l-2.88 -8.48 z M187.04 40 l0 -23.96 c0 -1 0.2 -1.2 0.52 -1.2 l17.52 0 c0.28 0 0.52 0.2 0.52 0.48 l0 4.52 c0 0.28 -0.24 0.52 -0.52 0.52 l-11.84 0 l0 4.16 l7.48 0 c0.28 0 0.52 0.24 0.52 0.52 l0 4.48 c0 0.28 -0.24 0.52 -0.52 0.52 l-7.48 0 l0 4.28 l11.8 0 c0.28 0 0.52 0.24 0.52 0.52 l0 4.48 c0 0.28 -0.24 0.52 -0.52 0.52 l-17.48 0 c-0.32 0 -0.52 -0.24 -0.52 0.16 z M210.12 40 c-0.32 0 -0.52 -0.24 -0.52 -0.52 l0 -23.96 c0 -0.28 0.2 -0.52 0.52 -0.52 l9.76 0 c3.04 0 5.44 0.76 7.12 2.32 c2.48 2.24 3.32 6.48 2.12 9.6 c-0.44 1.12 -1.2 2.16 -2.16 2.92 c-0.56 0.44 -1.16 0.76 -1.76 1.08 c1.72 2.72 4.32 8.24 4.32 8.24 c0.04 0.08 0.12 0.2 0.12 0.32 c0 0.28 -0.24 0.52 -0.52 0.52 l-5.92 0 c-0.16 0 -0.36 -0.12 -0.44 -0.28 l-3.48 -7.64 c-1.24 0.08 -2.2 0.04 -3.48 0.04 l0 7.36 c0 0.28 -0.24 0.52 -0.52 0.52 l-5.16 0 z M215.79999999999998 26.560000000000002 c0 0 5.04 0.56 6.8 -0.6 c0.68 -0.44 1.08 -1.52 1.08 -2.32 c-0.04 -0.88 -0.48 -1.8 -1.2 -2.36 c-0.76 -0.64 -2.64 -0.84 -3.6 -0.84 l-3.08 0.08 l0 6.04 z M234.20000000000002 40 c-0.16 0 -0.32 -0.08 -0.4 -0.24 c-0.12 -0.12 -0.12 -0.32 -0.08 -0.48 l9.32 -23.96 c0.08 -0.2 0.28 -0.32 0.48 -0.32 l5.36 0 c0.2 0 0.4 0.12 0.48 0.32 l9.16 23.96 c0.04 0.16 0.04 0.32 -0.08 0.48 c-0.08 0.16 -0.24 0.24 -0.4 0.24 l-5.56 0 c-0.2 0 -0.4 -0.12 -0.48 -0.32 l-1.48 -3.68 l-9 0.04 l-1.48 3.64 c-0.08 0.2 -0.28 0.32 -0.48 0.32 l-5.36 0 z M243.16 31 l5.76 0 l-2.88 -8.48 z"></path>
  </g>
  <g transform="matrix(0.672758408086929,0,0,0.672758408086929,108.42183156164751,45.16981807253972)">
    <path d="M7.9297 20.19531 c-4.0723 0 -7.0703 -2.8125 -7.0703 -7.2168 c0 -4.4629 3.0664 -7.2852 7.2168 -7.2852 c2.7246 0 4.9805 1.2012 6.2109 3.3203 l-2.5684 1.3672 c-0.74219 -1.4453 -2.0703 -2.1387 -3.6426 -2.1387 c-2.4414 0 -4.2773 1.6797 -4.2773 4.668 c0 2.8809 1.7188 4.7363 4.3848 4.7363 c1.8066 0 3.4668 -0.89844 3.8672 -2.959 l-3.8574 0 l0 -2.3535 l6.6309 0 l0 7.666 l-2.3047 0 l0 -1.9531 c-0.9082 1.3379 -2.4316 2.1484 -4.5898 2.1484 z M39.810039062499996 20 l-1.0254 -2.9102 l-5.9277 0 l-1.0254 2.9102 l-2.998 0 l5.1953 -14.111 l3.584 0 l5.1953 14.111 l-2.998 0 z M33.7158390625 14.6387 l4.209 0 l-2.0996 -5.9863 z M62.11916875 20.19531 c-3.0273 0 -5.3906 -1.4551 -5.8203 -4.1016 l3.0273 -0.69336 c0.19531 1.582 1.3574 2.4023 2.9102 2.4023 c1.1914 0 2.1387 -0.52734 2.1289 -1.7188 c-0.0097656 -1.3281 -1.5723 -1.748 -3.291 -2.2754 c-2.0703 -0.64453 -4.2871 -1.4063 -4.2871 -4.0039 c0 -2.627 2.1484 -4.1113 4.9805 -4.1113 c2.4805 0 4.9805 1.0059 5.5469 3.7109 l-2.832 0.70313 c-0.26367 -1.4063 -1.2109 -2.0215 -2.5391 -2.0215 c-1.1816 0 -2.1875 0.48828 -2.1875 1.6504 c0 1.084 1.3867 1.4453 2.9883 1.9238 c2.1289 0.64453 4.6484 1.4648 4.6484 4.2773 c0 2.998 -2.5098 4.2578 -5.2734 4.2578 z M90.7863671875 5.888999999999999 l0 2.5781 l-3.3496 0 l0 11.533 l-2.9004 0 l0 -11.533 l-3.3691 0 l0 -2.5781 l9.6191 0 z M112.958940625 20 l-3.6719 -6.2109 l-0.84961 0 l0 6.2109 l-2.9297 0 l0 -14.111 l5.1172 0 c3.1934 0 4.541 1.8848 4.541 4.2188 c0 1.8945 -1.0742 3.125 -2.9883 3.5352 l4.248 6.3574 l-3.4668 0 z M108.437540625 8.32 l0 3.3691 l1.7285 0 c1.5625 0 2.1973 -0.66406 2.1973 -1.6797 c0 -1.0059 -0.63477 -1.6895 -2.1973 -1.6895 l-1.7285 0 z M137.3291296875 20.19531 c-4.1504 0 -7.2168 -2.832 -7.2168 -7.2559 c0 -4.4336 3.0664 -7.2461 7.2168 -7.2461 c4.1406 0 7.207 2.8125 7.207 7.2461 c0 4.4238 -3.0664 7.2559 -7.207 7.2559 z M137.3291296875 17.5098 c2.4316 0 4.2969 -1.709 4.2969 -4.5703 c0 -2.8516 -1.8652 -4.5508 -4.2969 -4.5508 s-4.2969 1.6992 -4.2969 4.5508 c0 2.8613 1.8652 4.5703 4.2969 4.5703 z M167.31445625 12.5488 c1.5918 0.43945 2.6563 1.4844 2.6563 3.4961 c0 2.3828 -1.4453 3.9551 -4.4238 3.9551 l-5.8105 0 l0 -14.111 l4.5703 0 c3.0469 0 4.6484 1.4648 4.6484 3.8672 c0 1.2402 -0.53711 2.2559 -1.6406 2.793 z M164.33595625 8.32 l-1.7773 0 l0 3.3203 l1.9043 0 c1.25 0 1.7969 -0.74219 1.7969 -1.6992 c0 -0.9375 -0.61523 -1.6211 -1.9238 -1.6211 z M164.99995625 17.4902 c1.582 0 2.1289 -0.84961 2.1289 -1.7676 c0 -0.9375 -0.53711 -1.8262 -2.1875 -1.8262 l-2.3828 0 l0 3.5938 l2.4414 0 z M194.5268359375 20 l-1.0254 -2.9102 l-5.9277 0 l-1.0254 2.9102 l-2.998 0 l5.1953 -14.111 l3.584 0 l5.1953 14.111 l-2.998 0 z M188.4326359375 14.6387 l4.209 0 l-2.0996 -5.9863 z M219.599565625 20 l-3.6719 -6.2109 l-0.84961 0 l0 6.2109 l-2.9297 0 l0 -14.111 l5.1172 0 c3.1934 0 4.541 1.8848 4.541 4.2188 c0 1.8945 -1.0742 3.125 -2.9883 3.5352 l4.248 6.3574 l-3.4668 0 z M215.078165625 8.32 l0 3.3691 l1.7285 0 c1.5625 0 2.1973 -0.66406 2.1973 -1.6797 c0 -1.0059 -0.63477 -1.6895 -2.1973 -1.6895 l-1.7285 0 z"></path>
  </g>
</svg>