<svg xmlns="http://www.w3.org/2000/svg" width="24" height="24" viewBox="0 0 24 24"><path d="M69.006 30.628c-.375-1.066-.216-1.402-1.248-1.853a4.195 4.195 0 0 0-2.803-.17c-1.887.528-2.413 1.984-3.217 3.592-.555 1.113-1.406 1.859-2.32 2.332v-.002c-.74.385-1.498.525-2.309.672-1.784.32-3.26 1.55-3.997 3.202-.729 1.636-.657 3.549.294 5.072 2.142 3.419 6.733.807 8.548-2.807 3.734-7.432 2.358-3.925 5.422-6.294 1.413-1.093 2.227-2.056 1.632-3.744" style="fill:#f6eac9;fill-opacity:1;fill-rule:evenodd;stroke:none;stroke-width:.00616002" transform="translate(-48 -24)"/><path d="M67.93 33.087a3.796 3.796 0 0 1-.827.935l-.037.028v.002c-.403.311-.916.524-1.43.737-.7.29-1.404.582-2.037 1.152a6.38 6.38 0 0 0-1.432 1.881 7.3 7.3 0 0 0-.142.3l-.01.019v.012a8.46 8.46 0 0 0-.321.853c-.097.301-.172.57-.243.833-.267.996-.55 1.874-1.003 2.587-.428.676-1.032 1.23-1.965 1.644-1.651.732-3.482.533-4.878-.436a5.14 5.14 0 0 1-1.384-1.45l-.013-.022v-.002c-.616-.985-.826-2.155-.655-3.29v-.015c.036-.236.085-.46.145-.666.061-.21.14-.425.237-.644v-.001l.01-.019a5.131 5.131 0 0 1 2.36-2.506 4.861 4.861 0 0 1 1.288-.43v-.001c.451-.081.886-.16 1.301-.27.43-.114.852-.261 1.274-.473a.716.716 0 0 0 .066-.03 6.345 6.345 0 0 0 2.128-1.766c.118-.154.23-.315.336-.484.117-.186.218-.364.3-.53v-.002l.257-.515c.644-1.322 1.203-2.467 2.662-2.876a3.771 3.771 0 0 1 1.765-.072 3.749 3.749 0 0 1 .629.193l.034.016.023.01v-.001a3.652 3.652 0 0 1 1.79 1.71c.058.119.111.245.157.377v.002c.374 1.061.205 2.262-.382 3.212zm1.79-3.708v-.003a4.868 4.868 0 0 0-.518-1.048 5.15 5.15 0 0 0-2.245-1.91v-.004l-.021-.01a5.06 5.06 0 0 0-.472-.173 5.257 5.257 0 0 0-2.948-.028c-2.107.59-2.801 2.016-3.603 3.659l-.244.504v.002h-.001a4.458 4.458 0 0 1-.48.774 4.846 4.846 0 0 1-1.597 1.327l-.035.017c-.336.173-.68.294-1.036.387-.39.104-.78.175-1.183.248h-.01a6.242 6.242 0 0 0-1.69.565 6.626 6.626 0 0 0-3.056 3.23l-.01.023v.004c-.115.262-.216.54-.3.83a6.65 6.65 0 0 0-.193.853v.035c-.22 1.469.058 2.994.867 4.287v.002c.01.013.016.025.025.037.238.375.507.717.8 1.025.304.318.637.602.992.848 1.816 1.26 4.19 1.522 6.326.576 1.237-.55 2.045-1.296 2.626-2.21.556-.876.883-1.88 1.184-3.002.073-.273.147-.537.22-.763.075-.238.16-.47.259-.694v-.001c.01-.015.013-.03.02-.045.027-.06.064-.133.109-.223a4.887 4.887 0 0 1 1.099-1.448c.444-.399 1.028-.641 1.611-.883.604-.251 1.208-.501 1.774-.939v-.004.001-.002l.032-.028c.234-.183.447-.383.637-.597.197-.22.377-.466.54-.73.816-1.32 1.048-2.998.523-4.49" style="fill:#d19360;fill-opacity:1;fill-rule:evenodd;stroke:none;stroke-width:.00616002" transform="translate(-48 -24)"/><path d="M55.415 42.003a.76.76 0 1 0 1.075 1.072.76.76 0 0 0-1.075-1.072M58.06 41.663a.758.758 0 1 0 1.072 1.073.758.758 0 0 0-1.072-1.073M59.487 39.488a.758.758 0 1 0 1.072 1.073.758.758 0 0 0-1.072-1.073M60.352 36.869a.757.757 0 1 0 1.07 1.072.757.757 0 0 0-1.07-1.072M61.872 34.745a.758.758 0 1 0 1.072 1.072.758.758 0 0 0-1.072-1.072M53.356 40.272a.76.76 0 1 0 1.075 1.073.76.76 0 0 0-1.075-1.073M56.321 39.84a.758.758 0 1 0 1.072 1.072.758.758 0 0 0-1.072-1.072M64.067 33.075a.76.76 0 1 0 1.075 1.072.76.76 0 0 0-1.075-1.072" style="fill:#d19360;fill-opacity:1;fill-rule:evenodd;stroke:none;stroke-width:.00616002" transform="translate(-48 -24)"/></svg>