<svg xmlns="http://www.w3.org/2000/svg" width="24" height="24" viewBox="0 0 24 24"><path d="m78.555 42.023.074-1.714c.462-1.091.99-2.25 1.443-3.39 3.313-3.306 10.535-10.199 12.597-8.23 1.62 1.517-2.244 6.277-5.608 9.886-2.64-.152-5.65 2.326-8.505 3.448" style="fill:#ffcd00;fill-opacity:1;fill-rule:evenodd;stroke:none;stroke-width:.00608636" transform="translate(-72 -24)"/><path d="M85.281 34.106a.737.737 0 0 0 1.042-1.044l-.556-.557a.737.737 0 0 0-1.042 1.044l.557.557M87.551 32.441a.737.737 0 0 0 1.042.003.734.734 0 0 0 0-1.042l-.5-.5a.735.735 0 1 0-1.042 1.039l.5.5M90.02 30.922a.738.738 0 1 0 1.045-1.044l-.5-.5a.738.738 0 1 0-1.044 1.044l.5.5" style="fill:#9b9822;fill-opacity:1;fill-rule:evenodd;stroke:none;stroke-width:.00608636" transform="translate(-72 -24)"/><path d="M84.933 41.173c-2.221 2.096-4.784 4.514-7.446 2.504l-.105-.082.592-.592c1.301-.386 2.61-1.1 3.914-1.811 1.81-.989 3.61-1.972 5.16-1.871-.688.504-1.386 1.163-2.115 1.851zm-9.007.64c-1.12-2.43 1.034-4.715 2.926-6.72.542-.573 1.063-1.127 1.506-1.671-.226 1.577-1.078 3.535-1.885 5.39-.431.99-.848 1.95-1.165 2.843-.477.122-.94.183-1.382.158zm5.821-7.806c3.47-3.34 8.799-7.968 10.515-6.316v.002c.963.913-.159 3.072-1.914 5.399l-.199-.198a.738.738 0 0 0-1.042 1.044l.32.32c-.275.336-.559.672-.845 1.005l-.619-.618a.737.737 0 0 0-1.042 1.044l.68.68a77.31 77.31 0 0 1-.812.887l-1.005-1.005a.737.737 0 0 0-1.042 1.044l.698.7c-1.398.339-2.83 1.118-4.269 1.903-.678.37-1.357.74-2.025 1.056a94.46 94.46 0 0 1 .665-1.555c.783-1.8 1.606-3.689 1.923-5.393zm7.54 4.566a4.456 4.456 0 0 0-1.177-.567c3.533-3.85 7.51-9.078 5.203-11.347l-.029-.03v-.002c-2.34-2.244-7.635 1.806-11.45 5.295a3.752 3.752 0 0 0-.327-1.094.736.736 0 0 0-1.379.141v.004l-.01.042c-.243.85-1.247 1.915-2.335 3.068-2.42 2.563-5.197 5.507-2.893 8.956.118.208.247.4.387.576l-.554.555a.738.738 0 1 0 1.044 1.044l.567-.567.268.208c3.655 2.76 6.702-.116 9.344-2.608 1.153-1.089 2.218-2.094 3.068-2.336a.301.301 0 0 0 .041-.01v-.002a.737.737 0 0 0 .231-1.326" style="fill:#9b9822;fill-opacity:1;fill-rule:evenodd;stroke:none;stroke-width:.00608636" transform="translate(-72 -24)"/><path d="M83.103 35.713a.74.74 0 0 0 1.044-1.045l-.558-.557a.738.738 0 1 0-1.044 1.044l.558.558" style="fill:#9b9822;fill-opacity:1;fill-rule:evenodd;stroke:none;stroke-width:.00608636" transform="translate(-72 -24)"/></svg>