<svg xmlns="http://www.w3.org/2000/svg" width="24" height="24" viewBox="0 0 24 24"><path d="M35.264 55.099h6.015c-.045 3.486-2.516 6.183-6.725 6.397l-2.921-5.693c.904-.55 2.527-.704 3.63-.704" style="fill:#f6c2c2;fill-opacity:1;fill-rule:evenodd;stroke:none;stroke-width:.00554287" transform="translate(-24 -48)"/><path d="M35.522 56.05a.684.684 0 0 0-.682.683c0 .375.307.682.682.682a.684.684 0 0 0 .683-.682.684.684 0 0 0-.683-.683" style="fill:#e40046;fill-opacity:1;fill-rule:nonzero;stroke:none;stroke-width:.00554287" transform="translate(-24 -48)"/><path d="M41.692 65.218c.205-.509.39-1.091.536-1.686l1.225 1.715c-.596 0-1.193-.001-1.761-.03zm-6.647 3.143v-4.548c1.11 1.312 2.551 2.15 4.31 2.502a7.068 7.068 0 0 1-4.31 2.046zm-3.66-13.387a7.005 7.005 0 0 1 2.988-.666h6.642c-.226 4.45-2.131 6.424-6.256 6.511zM33.7 68.362a7.006 7.006 0 0 1-3.726-1.516L33.7 63.12zm-6.321-6.193h5.37l-3.74 3.74a7.015 7.015 0 0 1-1.63-3.74zm2.848-6.508 2.98 5.162h-5.856a7.041 7.041 0 0 1 2.876-5.162zm12.168 5.79a.674.674 0 0 0-1.217.322c-.114 1.113-.484 2.454-.901 3.325-2.12-.247-3.7-1.223-4.794-2.967 4.375-.334 6.632-2.906 6.876-7.824h1.58a2.048 2.048 0 0 0 2.045-2.045 2.048 2.048 0 0 0-2.045-2.046h-8.826a.673.673 0 0 0 0 1.346h8.826a.7.7 0 0 1 0 1.4h-9.564c-4.626 0-8.389 3.763-8.389 8.389 0 4.625 3.763 8.389 8.389 8.389 2.57 0 5.006-1.2 6.596-3.225.7.062 1.437.078 2.179.078h1.609a.671.671 0 0 0 .545-1.065l-2.907-4.068" style="fill:#e40046;fill-opacity:1;fill-rule:nonzero;stroke:none;stroke-width:.00554287" transform="translate(-24 -48)"/></svg>