<svg xmlns="http://www.w3.org/2000/svg" width="24" height="24" viewBox="0 0 24 24"><path d="M62.115 56.82a5.75 5.75 0 0 0-2.792-.714c-3.046 0-5.517 2.326-5.517 5.195 0 2.382 1.704 4.388 4.027 5 .088.01.175.01.262.01.303 0 .614-.036.928-.109l.022-.01a3.815 3.815 0 0 0 2.488-1.86c.47-.843.63-1.875.38-2.925a5.453 5.453 0 0 0-.056-.224c-.01-.015-.011-.03-.016-.045a2.937 2.937 0 0 0-2.173-2.001 2.568 2.568 0 0 0-1.15.002l-.024.01a2.353 2.353 0 0 0-1.771 1.764c-.033.14-.052.287-.054.432-.01.359.07.734.26 1.04.175.281.456.508.868.605.139.032.288.051.445.054.327 0 .588.274.582.601a.59.59 0 0 1-.6.583c-.256 0-.488-.034-.696-.082a2.504 2.504 0 0 1-1.606-1.14c-.316-.51-.448-1.115-.437-1.68 0-.24.033-.471.082-.682v-.01a3.62 3.62 0 0 1 .404-1 3.538 3.538 0 0 1 2.248-1.643c.01 0 .021 0 .031-.01a3.893 3.893 0 0 1 1.666-.006 4.142 4.142 0 0 1 2.946 2.494c.395-.411.983-.796 1.228-1.168a4.97 4.97 0 0 0-1.976-2.485" style="fill:#f8e7e0;fill-opacity:1;fill-rule:evenodd;stroke:none;stroke-width:.00489537" transform="translate(-48 -48)"/><path d="m68.24 58.55-1.912 4.528-.002-.001c-.528 1.197-1.144 1.91-1.845 2.315-.704.405-1.529.522-2.454.518h-1.024c.226-.189.432-.398.619-.62.138-.105.275-.247.411-.426.143-.187.294-.421.45-.69.76-1.312 1.692-3.55 2.33-5.179l.4-1.022c.022-.057.046-.115.073-.176.308-.7.694-1.088 1.09-1.256.367-.157.761-.128 1.108.01.02.01.042.017.07.029a1.36 1.36 0 0 1 .453.33c.336.373.477.96.234 1.641zm-15.132 6.287a5.94 5.94 0 0 0 1.09 1.076H52zm-.03-4.908c.338-1.981 1.734-3.644 3.77-4.239l.02-.01.079-.022.084-.023v.001c.166-.042.324-.076.471-.1h.015c.308-.05.623-.073.937-.072.316.001.638.028.96.081 1.63.266 3.18 1.194 3.99 2.755l.017.028.032.065.045.092c.042.09.082.186.12.285-.27.688-.587 1.465-.917 2.224-.01-.045-.016-.09-.025-.135l-.01-.028a5.028 5.028 0 0 0-.36-1.055h-.001a4.152 4.152 0 0 0-2.62-2.146 3.914 3.914 0 0 0-1.333-.118h-.03a3.775 3.775 0 0 0-.966.22c-.063.023-.115.042-.152.058h-.01a3.52 3.52 0 0 0-1.866 1.878c0 .01-.01.02-.013.03h-.001a3.443 3.443 0 0 0-.242.951c-.01.062-.01.128-.014.197v.23c.025.917.422 1.896 1.363 2.41.184.101.388.183.612.241.213.055.446.09.697.098h.054a.59.59 0 0 0 .606-.577.59.59 0 0 0-.578-.606l-.04-.001a2.384 2.384 0 0 1-.45-.062 1.48 1.48 0 0 1-.343-.134c-.513-.28-.73-.853-.745-1.398v-.024l-.001-.01v-.12c0-.039 0-.082.01-.127.022-.213.076-.423.16-.626h.003v-.01a2.495 2.495 0 0 1 .235-.428c.244-.354.586-.64 1.004-.82h.01a2.756 2.756 0 0 1 .76-.191h.02c.155-.013.31-.012.463 0a2.95 2.95 0 0 1 2.331 1.612h.002-.002c.066.13.116.254.155.373.04.116.075.255.109.408v.016c.064.294.096.581.098.856 0 .279-.024.559-.08.836a3.829 3.829 0 0 1-2.697 2.952l-.056.016-.063.017-.03.01a4.076 4.076 0 0 1-.878.125h-.254a4.588 4.588 0 0 1-.87-.112 4.714 4.714 0 0 1-3.498-3.436 5.728 5.728 0 0 1-.111-2.433zm16.508-5.78a.592.592 0 0 0-.775.315l-.497 1.178a2.513 2.513 0 0 0-.282-.15 2.85 2.85 0 0 0-.73-.211l.66-1.565a.592.592 0 0 0-1.091-.459l-.921 2.18c-.013 0-.025.01-.038.014-.652.277-1.262.856-1.704 1.854-1.043-1.647-2.78-2.633-4.594-2.929a7.23 7.23 0 0 0-2.272-.008h-.02a6.735 6.735 0 0 0-.574.118v.001l-.078.021c-.011 0-.021.01-.032.01l-.071.02c-.011 0-.022.01-.032.01v.001c-2.492.727-4.2 2.758-4.613 5.178-.08.466-.11.95-.09 1.442.021.491.095.99.224 1.488a5.602 5.602 0 0 0 .422 1.147l-2.337 2.27v.001a.592.592 0 0 0 .413 1.016h11.485c1.115.01 2.129-.148 3.045-.676.918-.53 1.704-1.415 2.342-2.862v-.01L69.344 59a.597.597 0 0 0 .027-.063c.324-.909.217-1.741-.15-2.384l.693-1.637a.592.592 0 0 0-.316-.775" style="fill:#a55c45;fill-opacity:1;fill-rule:evenodd;stroke:none;stroke-width:.00489537" transform="translate(-48 -48)"/></svg>