<svg xmlns="http://www.w3.org/2000/svg" width="115.217" height="99.308" viewBox="0 -9 83.017 83.094">
  <path d="M79.304 17.407c-2.581-4.886-3.816-10.494-3.675-16.109C81.907.296 81.283-8.878 74.89-9H58.587c-6.387.12-7.026 9.295-.741 10.298.14 5.616-1.094 11.222-3.675 16.11-1.114 2.209-2.558 4.232-4.135 6.149-2.176 2.87-3.872 6.445-4.683 10.062C42.127 45.47 48.041 61.2 59.788 65.094h13.9c12.322-4.109 18.027-20.88 14.033-33.031-1.398-5.772-5.766-9.627-8.417-14.656zM73.377 62.13H60.099c-5.196-2.286-9.386-7.24-11.332-13.337h35.942c-1.947 6.097-6.136 11.05-11.332 13.337zm-22.28-21.875c.68-.453 1.6-.27 2.055.411.784 1.175 2.677 1.175 3.462 0 .937-1.406 2.506-2.246 4.196-2.246s3.26.84 4.197 2.246c.784 1.175 2.677 1.175 3.462 0 1.85-2.96 6.544-2.96 8.393 0 .784 1.175 2.677 1.175 3.462 0 1.096-1.6 3.524.004 2.466 1.644-.938 1.407-2.507 2.246-4.197 2.246s-3.26-.84-4.197-2.246c-.784-1.175-2.677-1.175-3.461 0-.938 1.407-2.507 2.246-4.197 2.246s-3.26-.84-4.197-2.246c-.784-1.175-2.677-1.175-3.461 0-1.849 2.96-6.545 2.96-8.394 0-.454-.68-.27-1.6.411-2.055zm-2.775-6.28a23.582 23.582 0 0 1 3.582-7.929c.581 1.052 1.867 1.448 2.682.415l2.594-3.452c.889-1.093-.397-2.26-.993-3.112 3.185-5.54 4.772-12.015 4.623-18.524h11.855c-.149 6.51 1.438 12.984 4.624 18.524-.598.857-1.882 2.015-.993 3.112l2.593 3.452c.815 1.031 2.102.638 2.683-.415 1.638 2.331 2.886 5.075 3.59 7.929h-36.84z"/>
  <path d="M32.655 62.13c-8.153 0-15.842-2.702-21.436-7.41h33.564a30.637 30.637 0 0 1-1.299-3.09 5.012 5.012 0 0 1-3.171-2.119c-.784-1.175-2.677-1.175-3.462 0-1.85 2.96-6.542 2.96-8.393 0-.785-1.175-2.677-1.175-3.462 0-1.85 2.96-6.544 2.96-8.393 0-.785-1.175-2.677-1.175-3.462 0-1.1 1.6-3.523-.003-2.466-1.644 1.852-2.96 6.543-2.96 8.394 0 .784 1.175 2.677 1.175 3.461 0 .938-1.406 2.507-2.246 4.197-2.246s3.259.84 4.197 2.246c.784 1.175 2.677 1.175 3.461 0 1.673-2.667 5.765-3.002 7.839-.644a32.544 32.544 0 0 1-.597-4.357H33.72c.036-.04.086-.055.12-.099l2.592-3.458a1.482 1.482 0 0 0 0-1.778l-2.593-3.458c-.033-.044-.083-.06-.12-.098h8.524a28.034 28.034 0 0 1 1.797-5.833c-.5.106-.962.381-1.262.831-1.852 2.96-6.542 2.96-8.394 0-.785-1.178-2.675-1.178-3.461 0-1.85 2.96-6.544 2.96-8.394 0-.785-1.178-2.675-1.178-3.461 0-1.849 2.96-6.545 2.96-8.394 0-1.06-1.617 1.377-3.253 2.466-1.644.785 1.177 2.677 1.177 3.462 0 1.851-2.96 6.542-2.96 8.393 0 .785 1.177 2.678 1.177 3.462 0 .938-1.406 2.506-2.246 4.197-2.246s3.259.84 4.196 2.246c.785 1.177 2.678 1.177 3.462 0 1.103-1.67 3.199-2.58 5.163-2.126a28.51 28.51 0 0 1 1.956-3.083H11.24a30.551 30.551 0 0 1 9.13-5.246c3.241-1.092 4.168-5.211 2.89-8.091h17.309c-1.35 2.852-.066 6.693 3.112 7.646a32.543 32.543 0 0 1 6.019 2.648 28.004 28.004 0 0 0 1.553-2.538 35.526 35.526 0 0 0-6.653-2.925c-1.144-.362-1.693-1.483-1.571-2.609a2.22 2.22 0 0 1 2.223-2.222h1.481c2.86 0 5.187-2.327 5.187-5.187s-2.327-5.187-5.187-5.187H18.577c-6.846.216-6.86 10.153 0 10.374a2.22 2.22 0 0 1 2.223 2.222c.072 1.138-.026 2.362-1.164 2.93C10.036 3.847-6.756 16.37 2.89 27.547c-5.275 9.314-2.907 20.965 5.016 28.24 9.942 9.864 28.605 12.069 41.352 5.592a27.327 27.327 0 0 1-1.947-2.398c-4.413 2.03-9.436 3.15-14.657 3.15zm-11.04-24.599-2.594-3.458c-.033-.044-.083-.06-.12-.098h12.687c-.036.039-.086.054-.119.098l-2.593 3.458a1.482 1.482 0 0 0 0 1.778l2.593 3.458c.033.044.083.06.12.099H18.901c.036-.04.086-.055.12-.099l2.593-3.458a1.482 1.482 0 0 0 0-1.778zM11.167 13.228c2.078 0 4.041.72 5.535 1.98-4.93 2.278-9.115 5.442-12.17 9.728-3.938-4.87.313-11.864 6.635-11.708zM4.105 42.866c.032-.036.07-.065.097-.104l2.594-3.453c.4-.533.4-1.244 0-1.778l-2.594-3.453c-.027-.039-.065-.068-.097-.103H16.77c-.037.039-.087.054-.12.098l-2.593 3.458a1.482 1.482 0 0 0 0 1.778l2.593 3.458c.033.044.083.06.12.099H4.105zM65.552 17.773 62.96 21.23a1.482 1.482 0 0 0 0 1.779l2.593 3.457c.593.79 1.779.79 2.371 0 3.833-5.238 3.828-3.46 0-8.693a1.482 1.482 0 0 0-2.37 0z"/>
</svg>